<svg width="74" height="32" viewBox="0 0 74 32" fill="none" xmlns="http://www.w3.org/2000/svg">
<path d="M11.9388 23.027C9.46955 23.027 7.46683 25.0358 7.46683 27.5127C7.46683 29.9912 9.46878 32 11.9388 32C14.4088 32 16.41 29.9912 16.41 27.5127C16.41 25.0358 14.4088 23.027 11.9388 23.027ZM11.9388 29.8303C10.6627 29.8303 9.62839 28.7924 9.62839 27.5127C9.62839 26.2331 10.6627 25.1936 11.9388 25.1936C13.2149 25.1936 14.2484 26.2331 14.2484 27.5127C14.2484 28.7924 13.2149 29.8303 11.9388 29.8303ZM54.157 23.027C51.6877 23.027 49.6858 25.0358 49.6858 27.5127C49.6858 29.9912 51.6877 32 54.157 32C56.6262 32 58.629 29.9912 58.629 27.5127C58.629 25.0358 56.6262 23.027 54.157 23.027ZM54.157 29.8303C52.8809 29.8303 51.8466 28.7924 51.8466 27.5127C51.8466 26.2331 52.8809 25.1936 54.157 25.1936C55.4331 25.1936 56.4674 26.2331 56.4674 27.5127C56.4674 28.7924 55.4331 29.8303 54.157 29.8303ZM72.8567 0H27.1571C23.299 0 18.2554 4.04841 18.2554 4.04841L2.20452 16.8135C0.864775 17.8429 0 19.4644 0 21.2884C0 24.3998 0.966829 26.9229 4.06759 26.9229L6.35728 26.8991C6.66268 24.0764 9.04445 21.879 11.9388 21.879C14.7948 21.879 17.1505 24.0171 17.5057 26.7874H27.1571H29.6195H48.59C48.9453 24.0171 51.3018 21.879 54.157 21.879C57.0137 21.879 59.3694 24.0171 59.7247 26.7874H60.6186L72.8567 25.574C73.4882 25.574 74 25.0596 74 24.4252V1.148C74 0.513559 73.4882 0 72.8567 0ZM2.90816 20.7649C2.62195 21.2699 2.00041 21.2884 1.56304 21.2884C1.10955 21.2884 0.739701 21.052 0.823339 20.6301C0.906977 20.2089 1.24383 18.5897 2.1347 17.9322C3.02633 17.2739 3.26113 17.3239 3.37853 17.7636C3.4967 18.2009 3.1936 20.2582 2.90816 20.7649ZM24.7378 12.3131C24.7378 12.9475 24.226 13.4611 23.5937 13.4611H10.7916C10.2139 13.4611 9.61534 12.6596 10.5806 11.8742C12.555 10.2689 16.176 7.36922 17.9976 5.84625C19.9873 4.18315 21.6585 4.3179 21.6585 4.3179H23.5929C24.2252 4.3179 24.737 4.83145 24.737 5.46589V12.3131H24.7378ZM44.4143 12.3131C44.4143 12.9475 43.9009 13.4611 43.2702 13.4611H29.5535C28.9212 13.4611 28.4094 12.9475 28.4094 12.3131V5.46589C28.4094 4.83145 28.9212 4.3179 29.5535 4.3179H43.2694C43.9002 4.3179 44.4135 4.83145 44.4135 5.46589V12.3131H44.4143ZM62.1594 12.3131C62.1594 12.9475 61.6476 13.4611 61.0161 13.4611H47.2994C46.6687 13.4611 46.1561 12.9475 46.1561 12.3131V5.46589C46.1561 4.83145 46.6687 4.3179 47.2994 4.3179H61.0161C61.6476 4.3179 62.1594 4.83145 62.1594 5.46589V12.3131ZM72.2728 12.3131C72.2728 12.9475 71.7609 13.4611 71.1294 13.4611H65.0446C64.413 13.4611 63.9005 12.9475 63.9005 12.3131V5.46589C63.9005 4.83145 64.413 4.3179 65.0446 4.3179H71.1294C71.7609 4.3179 72.2728 4.83145 72.2728 5.46589V12.3131Z" fill="#293E6C"/>
</svg>
