<svg width="67" height="24" viewBox="0 0 67 24" fill="none" xmlns="http://www.w3.org/2000/svg">
<path d="M11.6954 13.7291C8.90351 13.7291 6.63965 15.9923 6.63965 18.7849C6.63965 19.0002 6.65725 19.2121 6.68433 19.4199C6.99778 21.9119 9.1188 23.8393 11.6948 23.8393C14.3404 23.8393 16.5095 21.8057 16.7296 19.2155C16.7411 19.074 16.7505 18.9298 16.7505 18.7842C16.7512 15.9923 14.488 13.7291 11.6954 13.7291ZM9.16483 16.8799L10.1952 17.9109C10.1153 18.0483 10.0524 18.1966 10.0118 18.355H8.55892C8.63339 17.8053 8.84394 17.303 9.16483 16.8799ZM8.55215 19.2304H10.0165C10.0578 19.3861 10.1187 19.5337 10.2 19.6691L9.16686 20.7015C8.84665 20.2817 8.63136 19.7794 8.55215 19.2304ZM11.2581 21.9255C10.7104 21.849 10.2128 21.6344 9.79173 21.3169L10.8194 20.2885C10.9548 20.3677 11.1031 20.4259 11.2581 20.4666V21.9255ZM11.2581 17.1033C11.099 17.1452 10.9501 17.2075 10.8113 17.2894L9.78157 16.2597C10.2047 15.9382 10.707 15.7256 11.2581 15.6491V17.1033ZM12.1334 15.6477C12.6845 15.7242 13.1875 15.9382 13.61 16.2591L12.5809 17.2888C12.4428 17.2068 12.2925 17.1446 12.1341 17.1026L12.1334 15.6477ZM12.1334 21.9241V20.4672C12.2892 20.4259 12.4361 20.3684 12.5715 20.2885L13.5998 21.3169C13.1787 21.6344 12.6805 21.8476 12.1334 21.9241ZM14.2267 20.7062L13.1902 19.6684C13.2715 19.5323 13.3371 19.3868 13.3784 19.2311H14.8313C14.7541 19.7781 14.5476 20.2845 14.2267 20.7062ZM13.3805 18.355C13.3392 18.1966 13.2769 18.0483 13.197 17.9109L14.2287 16.8799C14.5476 17.303 14.7582 17.8053 14.834 18.3557H13.3805V18.355Z" fill="#293E6C"/>
<path d="M53.6752 13.7291C50.8832 13.7291 48.6194 15.9923 48.6194 18.7849C48.6194 19.0002 48.637 19.2121 48.6641 19.4199C48.9775 21.9119 51.0985 23.8393 53.6738 23.8393C56.3195 23.8393 58.4886 21.8057 58.7093 19.2155C58.7208 19.074 58.7303 18.9298 58.7303 18.7842C58.7316 15.9923 56.4678 13.7291 53.6752 13.7291ZM51.1446 16.8799L52.1743 17.9109C52.0944 18.0483 52.0314 18.1966 51.9908 18.355H50.538C50.6131 17.8053 50.8237 17.303 51.1446 16.8799ZM50.5326 19.2304H51.9969C52.0382 19.3861 52.0991 19.5337 52.1804 19.6691L51.148 20.7015C50.8264 20.2817 50.6104 19.7794 50.5326 19.2304ZM53.2378 21.9255C52.6901 21.849 52.1926 21.6344 51.7715 21.3169L52.7991 20.2885C52.9345 20.3677 53.0828 20.4259 53.2378 20.4666V21.9255ZM53.2378 17.1033C53.0787 17.1452 52.9298 17.2075 52.791 17.2894L51.7613 16.2597C52.1844 15.9382 52.6861 15.7256 53.2378 15.6491V17.1033ZM54.1139 15.6477C54.6649 15.7242 55.1679 15.9382 55.5904 16.2591L54.5607 17.2888C54.4226 17.2068 54.2723 17.1432 54.1139 17.1026V15.6477ZM54.1139 21.9241V20.4672C54.2696 20.4259 54.4165 20.3684 54.5519 20.2885L55.5802 21.3169C55.1591 21.6344 54.6602 21.8476 54.1139 21.9241ZM56.2065 20.7062L55.17 19.6697C55.2512 19.533 55.3176 19.3881 55.3582 19.2317H56.811C56.7338 19.7781 56.528 20.2845 56.2065 20.7062ZM55.3602 18.355C55.3189 18.1966 55.2573 18.0483 55.1767 17.9109L56.2078 16.8799C56.5273 17.303 56.7372 17.8053 56.8137 18.3557H55.3602V18.355Z" fill="#293E6C"/>
<path d="M65.815 11.1119V7.37084C65.815 6.76899 65.3776 6.25921 64.7832 6.16646C63.3568 5.94306 60.8282 5.52129 59.6922 5.17128C58.0634 4.66895 51.7701 2.00431 49.5908 1.50401C47.4109 1.00371 37.5823 -1.6677 28.1687 1.59541C26.5758 2.14716 19.4098 5.57274 15.1962 7.35391C13.9553 7.38099 1.67257 9.94138 1.01859 11.6961C0.364616 13.4516 0.159487 14.3032 0.0389822 14.7487C-0.0815226 15.1942 0.0389822 17.326 0.951569 18.8107C1.88176 19.3367 3.67241 19.6901 5.74265 19.927C5.71896 19.8004 5.69323 19.6759 5.67698 19.5479C5.6411 19.2744 5.62418 19.0246 5.62418 18.7863C5.62418 15.4386 8.34704 12.7143 11.6955 12.7143C15.0439 12.7143 17.7667 15.4379 17.7667 18.7863C17.7667 18.9583 17.7552 19.1289 17.7424 19.2968C17.7105 19.6725 17.6428 20.0374 17.5447 20.3887C17.5494 20.3887 17.5609 20.3887 17.5609 20.3887L47.698 19.7822C47.6844 19.7043 47.6668 19.6271 47.6567 19.5479C47.6208 19.2758 47.6039 19.0253 47.6039 18.7863C47.6039 15.4386 50.3267 12.715 53.6751 12.715C57.0235 12.715 59.7471 15.4379 59.7471 18.7863C59.7471 18.7992 59.7457 18.81 59.745 18.8222L59.8737 18.8113L65.0263 17.8412C65.0263 17.8412 66.9997 16.7905 66.9997 13.8998C67.0004 11.9717 65.815 11.1119 65.815 11.1119ZM35.9196 7.56513L24.6646 7.90972C24.8718 6.22333 23.8732 5.84489 23.8732 5.84489C28.3475 1.78361 37.365 1.64618 37.365 1.64618L35.9196 7.56513ZM48.551 7.04994L38.2945 7.39453L39.224 1.64686C44.5249 1.5778 47.5531 2.74765 47.5531 2.74765L49.0675 5.19159L48.551 7.04994ZM54.3332 7.01474H51.4756L48.6187 3.09156C50.762 3.94457 52.4775 4.7854 53.4991 5.31684C54.1192 5.63909 54.4577 6.32759 54.3332 7.01474Z" fill="#293E6C"/>
</svg>
