<svg width="39" height="39" viewBox="0 0 39 39" fill="none" xmlns="http://www.w3.org/2000/svg">
<path d="M25.9262 19.9612C25.919 19.6539 25.7981 19.3602 25.5868 19.137L18.1392 11.3791C17.91 11.1423 17.5964 11.0061 17.2669 11.0002C16.9375 10.9944 16.6192 11.1194 16.3817 11.3478C16.1443 11.5763 16.0071 11.8895 16.0003 12.2189C15.9934 12.5484 16.1175 12.867 16.3452 13.1051L22.9685 20L16.3452 26.8949C16.1175 27.133 15.9934 27.4517 16.0003 27.7811C16.0071 28.1105 16.1443 28.4238 16.3817 28.6522C16.6192 28.8807 16.9375 29.0057 17.2669 28.9998C17.5964 28.9939 17.91 28.8577 18.1392 28.621L25.5868 20.8631C25.7006 20.743 25.7893 20.6013 25.8476 20.4464C25.9059 20.2915 25.9326 20.1266 25.9262 19.9612Z" fill="#ABABAB"/>
<circle cx="19.5" cy="19.5" r="18.5" stroke="#ABABAB" stroke-width="2"/>
</svg>
