<svg width="245" height="376" viewBox="0 0 245 376" fill="none" xmlns="http://www.w3.org/2000/svg">
<path d="M1 32.5V366C1.06092 372.982 3.59527 374.305 10.7062 374L239.858 375.5C243.41 373.664 244.521 371.682 244.5 366C244.132 268.819 244.369 126.814 244.465 79.4998V32.5C242.109 15.2694 225.358 0.499832 219.179 0.499832H36C8 6.49991 1 31 1 32.5Z" stroke="black"/>
<path d="M1 60.9998C4.60639 50.4555 8.06224 45.6591 18.0925 39.9998H226.131C237.253 43.9299 241.34 48.4743 244.5 60.9998" stroke="black"/>
<path d="M244.5 80.9998C244.5 80.9998 240.776 81.3579 239.014 82.9998C237.214 84.6769 236.06 88.9998 236.06 88.9998V128.5C236.06 128.5 236.42 130.762 238.592 133C240.324 134.784 244.5 134.5 244.5 134.5" stroke="black"/>
<path d="M244.5 216C244.5 216 240.776 216.358 239.014 218C237.214 219.677 236.06 224 236.06 224V273C236.06 273 236.842 278.762 239.014 281C240.746 282.785 244.5 283.5 244.5 283.5" stroke="black"/>
<path d="M1.05956 216C1.05956 216 4.78379 216.358 6.54569 218C8.34528 219.677 9.49976 224 9.49976 224V273C9.49976 273 8.71753 278.762 6.54569 281C4.81356 282.784 1.05956 283.5 1.05956 283.5" stroke="black"/>
<path d="M68 0.499832C46.8067 16.2512 32.5584 23.1726 1.5 30.9998" stroke="black"/>
<path d="M177 0.999832C198.193 16.7512 212.442 23.6726 243.5 31.4998" stroke="black"/>
</svg>
