<svg width="291" height="708" viewBox="0 0 291 708" fill="none" xmlns="http://www.w3.org/2000/svg">
<path d="M59 1H234M59 1C59 1 44.2846 3.20039 36 7.5C27.7445 11.7845 23.5329 15.4208 17.5 22.5C11.3735 29.6891 8.67381 34.6037 5.5 43.5C2.30726 52.4494 1.5 67.5 1.5 67.5M59 1C57.3931 39.9432 42.2766 52.927 1.5 67.5M234 1C234 1 250.957 4.57658 260 10.5C267.508 15.4182 271.236 19.2297 276.5 26.5C281.724 33.715 283.826 38.5033 286.5 47C288.938 54.7471 290 67.5 290 67.5M234 1C235.607 39.9432 249.223 52.927 290 67.5M290 67.5V698C290 698 289.631 702.475 287 704.5C283.582 707.131 275 706.5 275 706.5H17C17 706.5 8.81364 706.557 5 705C2.64287 704.038 1 699 1 699L1.5 67.5" stroke="black"/>
<path d="M1.5 96C5.77287 85.4557 9.86739 80.6593 21.7513 75H268.236C281.414 78.9301 286.256 83.4745 290 96" stroke="black"/>
</svg>
