<svg width="131" height="42" viewBox="0 0 131 42" fill="none" xmlns="http://www.w3.org/2000/svg">
<path d="M5.60002 14.8588C5.56547 14.4891 5.27969 14.2064 4.93808 14.2064H4.12594C3.93719 14.2064 3.75908 14.2949 3.6328 14.4442C3.50653 14.5964 3.44539 14.8008 3.46532 15.0053L3.67135 17.2249C3.63812 17.2162 3.60755 17.2017 3.57166 17.2017H2.57742C2.30759 17.2017 2.0896 17.4409 2.0896 17.7338C2.0896 18.0266 2.30759 18.2658 2.57742 18.2658H3.57166C3.63945 18.2658 3.70458 18.2484 3.76307 18.2238L3.98504 20.6101C4.01827 20.9798 4.30538 21.2611 4.64566 21.2611H5.4578C5.46312 21.2611 5.46843 21.2611 5.47508 21.2611C5.84194 21.2611 6.13968 20.9363 6.13968 20.5362C6.13968 20.4535 6.12772 20.3767 6.10512 20.3042L5.60002 14.8588Z" fill="#293E6C"/>
<path d="M31.4129 27.7227C27.9238 27.7227 25.0952 30.8078 25.0952 34.6135C25.0952 38.4192 27.9238 41.5029 31.4129 41.5029C34.9021 41.5029 37.7293 38.4192 37.7293 34.6135C37.7293 30.8078 34.9021 27.7227 31.4129 27.7227ZM31.4129 37.9886C29.7036 37.9886 28.3172 36.4779 28.3172 34.6135C28.3172 32.7491 29.7036 31.2384 31.4129 31.2384C33.1223 31.2384 34.5086 32.7491 34.5086 34.6135C34.5086 36.4779 33.1236 37.9886 31.4129 37.9886Z" fill="#293E6C"/>
<path d="M128.719 0H5.23307C4.1737 0 3.26851 0.835076 3.09438 1.97316L2.95482 2.87927C2.95482 2.88217 2.95349 2.88217 2.95349 2.88507L0.0664602 21.7468H0.0531681L0.0292425 21.8976C0.00930444 22.0251 0 22.1585 0 22.289V35.8126C0 37.1174 0.970318 38.1772 2.16926 38.1772H24.1769V34.4599C24.1769 30.1004 27.4175 26.5673 31.4144 26.5673C35.4113 26.5673 38.6519 30.1019 38.6519 34.4599V38.1772H92.9485V34.4599C92.9485 30.1004 96.1891 26.5673 100.185 26.5673C104.18 26.5673 107.422 30.1019 107.422 34.4599V37.5204L128.901 35.5473C130.024 35.4443 130.887 34.4208 130.887 33.1899V2.3675C130.887 1.05834 129.916 0 128.719 0ZM11.9708 20.5377C11.9708 21.206 11.475 21.7468 10.8636 21.7468H1.05273L3.82146 3.65636H10.8622C11.4737 3.65636 11.9695 4.19713 11.9695 4.86403V20.5377H11.9708ZM32.5203 15.5026C32.5203 16.1709 32.0245 16.7117 31.4131 16.7117H15.4613C14.8499 16.7117 14.3541 16.1709 14.3541 15.5026V4.86403C14.3541 4.19713 14.8499 3.65636 15.4613 3.65636H31.4131C32.0245 3.65636 32.5203 4.19713 32.5203 4.86403V15.5026ZM53.0817 15.5026C53.0817 16.1709 52.5846 16.7117 51.9745 16.7117H36.0214C35.41 16.7117 34.9142 16.1709 34.9142 15.5026V4.86403C34.9142 4.19713 35.41 3.65636 36.0214 3.65636H51.9732C52.5846 3.65636 53.0804 4.19713 53.0804 4.86403V15.5026H53.0817ZM73.6418 15.5026C73.6418 16.1709 73.146 16.7117 72.5333 16.7117H56.5815C55.9701 16.7117 55.4743 16.1709 55.4743 15.5026V4.86403C55.4743 4.19713 55.9701 3.65636 56.5815 3.65636H72.5333C73.146 3.65636 73.6418 4.19713 73.6418 4.86403V15.5026ZM94.2006 15.5026C94.2006 16.1709 93.7048 16.7117 93.0934 16.7117H77.1416C76.5302 16.7117 76.0331 16.1709 76.0331 15.5026V4.86403C76.0331 4.19713 76.5302 3.65636 77.1416 3.65636H93.0934C93.7048 3.65636 94.2006 4.19713 94.2006 4.86403V15.5026ZM114.762 15.5026C114.762 16.1709 114.266 16.7117 113.653 16.7117H97.703C97.0903 16.7117 96.5945 16.1709 96.5945 15.5026V4.86403C96.5945 4.19713 97.0903 3.65636 97.703 3.65636H113.653C114.266 3.65636 114.762 4.19713 114.762 4.86403V15.5026ZM128.231 15.5026C128.231 16.1709 127.734 16.7117 127.124 16.7117H117.907C117.294 16.7117 116.798 16.1709 116.798 15.5026V4.86403C116.798 4.19713 117.294 3.65636 117.907 3.65636H127.124C127.734 3.65636 128.231 4.19713 128.231 4.86403V15.5026Z" fill="#293E6C"/>
<path d="M100.185 27.7227C96.6956 27.7227 93.8684 30.8078 93.8684 34.6135C93.8684 38.4192 96.6956 41.5029 100.185 41.5029C103.674 41.5029 106.501 38.4192 106.501 34.6135C106.501 30.8078 103.674 27.7227 100.185 27.7227ZM100.185 37.9886C98.4754 37.9886 97.0904 36.4779 97.0904 34.6135C97.0904 32.7491 98.4754 31.2384 100.185 31.2384C101.895 31.2384 103.28 32.7491 103.28 34.6135C103.28 36.4779 101.895 37.9886 100.185 37.9886Z" fill="#293E6C"/>
</svg>
