<svg width="30" height="30" viewBox="0 0 30 30" fill="none" xmlns="http://www.w3.org/2000/svg">
<path d="M19 0H3C1.346 0 0 1.346 0 3V23C0 24.654 1.346 26 3 26V27C3 28.654 4.346 30 6 30C7.654 30 9 28.654 9 27V26H13V27C13 28.654 14.346 30 16 30C17.654 30 19 28.654 19 27V26C20.654 26 22 24.654 22 23V3C22 1.346 20.654 0 19 0ZM4 6C4 4.897 4.897 4 6 4H16C17.103 4 18 4.897 18 6V12C18 13.103 17.103 14 16 14H6C4.897 14 4 13.103 4 12V6ZM7 22C5.346 22 4 20.654 4 19C4 17.346 5.346 16 7 16C8.654 16 10 17.346 10 19C10 20.654 8.654 22 7 22ZM12 19C12 17.346 13.346 16 15 16C16.654 16 18 17.346 18 19C18 20.654 16.654 22 15 22C13.346 22 12 20.654 12 19Z" fill="white"/>
<path d="M29 2H28V1C28 0.448 27.553 0 27 0C26.447 0 26 0.448 26 1V2H25C24.447 2 24 2.448 24 3C24 3.552 24.447 4 25 4H26V5C26 5.552 26.447 6 27 6C27.553 6 28 5.552 28 5V4H29C29.553 4 30 3.552 30 3C30 2.448 29.553 2 29 2Z" fill="white"/>
</svg>
