<svg width="344" height="215" viewBox="0 0 344 215" fill="none" xmlns="http://www.w3.org/2000/svg">
<g filter="url(#filter0_d_0:3)">
<path fill-rule="evenodd" clip-rule="evenodd" d="M314 8H64V203H314C325.046 203 334 194.046 334 183V143.971C323.301 135.624 316.269 121.508 316.269 105.5C316.269 89.4917 323.301 75.3757 334 67.0286V28C334 16.9543 325.046 8 314 8Z" fill="#FEFEFE"/>
</g>
<g filter="url(#filter1_d_0:3)">
<path d="M10 28C10 16.9543 18.9543 8 30 8H60V203H30C18.9543 203 10 194.046 10 183V28Z" fill="#626060"/>
</g>
<path d="M28.4 167.878L41 167.878L41 170.794L35.834 170.794L35.834 176.518L41 176.518L41 179.434L28.4 179.434L28.4 176.518L33.368 176.518L33.368 170.794L28.4 170.794L28.4 167.878ZM38.66 154.965L41 154.965L41 164.721L28.4 164.721L28.4 155.199L30.74 155.199L30.74 161.823L33.476 161.823L33.476 155.973L35.744 155.973L35.744 161.823L38.66 161.823L38.66 154.965ZM41.216 136.402C41.216 137.71 40.934 138.892 40.37 139.948C39.806 140.992 39.032 141.814 38.048 142.414C37.052 143.002 35.936 143.296 34.7 143.296C33.464 143.296 32.354 143.002 31.37 142.414C30.374 141.814 29.594 140.992 29.03 139.948C28.466 138.892 28.184 137.71 28.184 136.402C28.184 135.094 28.466 133.918 29.03 132.874C29.594 131.83 30.374 131.008 31.37 130.408C32.354 129.808 33.464 129.508 34.7 129.508C35.936 129.508 37.052 129.808 38.048 130.408C39.032 131.008 39.806 131.83 40.37 132.874C40.934 133.918 41.216 135.094 41.216 136.402ZM38.732 136.402C38.732 135.658 38.564 134.986 38.228 134.386C37.88 133.786 37.4 133.318 36.788 132.982C36.176 132.634 35.48 132.46 34.7 132.46C33.92 132.46 33.224 132.634 32.612 132.982C32 133.318 31.526 133.786 31.19 134.386C30.842 134.986 30.668 135.658 30.668 136.402C30.668 137.146 30.842 137.818 31.19 138.418C31.526 139.018 32 139.492 32.612 139.84C33.224 140.176 33.92 140.344 34.7 140.344C35.48 140.344 36.176 140.176 36.788 139.84C37.4 139.492 37.88 139.018 38.228 138.418C38.564 137.818 38.732 137.146 38.732 136.402ZM28.4 115.778L41 115.778L41 118.676L30.776 118.676L30.776 124.364L41 124.364L41 127.262L28.4 127.262L28.4 115.778ZM28.4 101.511L41 101.511L41 104.391L30.776 104.391L30.776 108.711L33.404 108.801C35.192 108.861 36.644 109.005 37.76 109.233C38.864 109.461 39.716 109.845 40.316 110.385C40.904 110.913 41.198 111.657 41.198 112.617C41.198 113.013 41.132 113.493 41 114.057L38.534 113.877C38.582 113.721 38.606 113.547 38.606 113.355C38.606 112.659 38.198 112.173 37.382 111.897C36.554 111.621 35.264 111.447 33.512 111.375L28.4 111.195L28.4 101.511ZM38.3 89.8317L38.3 95.6817L41 96.7977L41 99.7857L28.4 94.1697L28.4 91.2897L41 85.6557L41 88.7157L38.3 89.8317ZM36.086 90.7497L31.262 92.7477L36.086 94.7457L36.086 90.7497ZM28.4 74.584L41 74.584L41 77.464L36.464 77.464C36.86 78.556 37.058 79.57 37.058 80.506C37.058 82.198 36.656 83.494 35.852 84.394C35.036 85.294 33.866 85.744 32.342 85.744L28.4 85.744L28.4 82.864L32.018 82.864C32.882 82.864 33.536 82.636 33.98 82.18C34.412 81.712 34.628 81.04 34.628 80.164C34.628 79.204 34.442 78.304 34.07 77.464L28.4 77.464L28.4 74.584ZM38.66 61.6956L41 61.6956L41 71.4516L28.4 71.4516L28.4 61.9296L30.74 61.9296L30.74 68.5536L33.476 68.5536L33.476 62.7036L35.744 62.7036L35.744 68.5536L38.66 68.5536L38.66 61.6956ZM28.4 47.7842L41 47.7842L41 50.7002L35.834 50.7002L35.834 56.4242L41 56.4242L41 59.3402L28.4 59.3402L28.4 56.4242L33.368 56.4242L33.368 50.7002L28.4 50.7002L28.4 47.7842ZM41.216 38.6154C41.216 39.9234 40.934 41.1054 40.37 42.1614C39.806 43.2054 39.032 44.0274 38.048 44.6274C37.052 45.2154 35.936 45.5094 34.7 45.5094C33.464 45.5094 32.354 45.2154 31.37 44.6274C30.374 44.0274 29.594 43.2054 29.03 42.1614C28.466 41.1054 28.184 39.9234 28.184 38.6154C28.184 37.3074 28.466 36.1314 29.03 35.0874C29.594 34.0434 30.374 33.2214 31.37 32.6214C32.354 32.0214 33.464 31.7214 34.7 31.7214C35.936 31.7214 37.052 32.0214 38.048 32.6214C39.032 33.2214 39.806 34.0434 40.37 35.0874C40.934 36.1314 41.216 37.3074 41.216 38.6154ZM38.732 38.6154C38.732 37.8714 38.564 37.1994 38.228 36.5994C37.88 35.9994 37.4 35.5314 36.788 35.1954C36.176 34.8474 35.48 34.6734 34.7 34.6734C33.92 34.6734 33.224 34.8474 32.612 35.1954C32 35.5314 31.526 35.9994 31.19 36.5994C30.842 37.1994 30.668 37.8714 30.668 38.6154C30.668 39.3594 30.842 40.0314 31.19 40.6314C31.526 41.2314 32 41.7054 32.612 42.0534C33.224 42.3894 33.92 42.5574 34.7 42.5574C35.48 42.5574 36.176 42.3894 36.788 42.0534C37.4 41.7054 37.88 41.2314 38.228 40.6314C38.564 40.0314 38.732 39.3594 38.732 38.6154Z" fill="white"/>
<defs>
<filter id="filter0_d_0:3" x="54" y="0" width="290" height="215" filterUnits="userSpaceOnUse" color-interpolation-filters="sRGB">
<feFlood flood-opacity="0" result="BackgroundImageFix"/>
<feColorMatrix in="SourceAlpha" type="matrix" values="0 0 0 0 0 0 0 0 0 0 0 0 0 0 0 0 0 0 127 0" result="hardAlpha"/>
<feOffset dy="2"/>
<feGaussianBlur stdDeviation="5"/>
<feColorMatrix type="matrix" values="0 0 0 0 0 0 0 0 0 0 0 0 0 0 0 0 0 0 0.2 0"/>
<feBlend mode="normal" in2="BackgroundImageFix" result="effect1_dropShadow_0:3"/>
<feBlend mode="normal" in="SourceGraphic" in2="effect1_dropShadow_0:3" result="shape"/>
</filter>
<filter id="filter1_d_0:3" x="0" y="0" width="70" height="215" filterUnits="userSpaceOnUse" color-interpolation-filters="sRGB">
<feFlood flood-opacity="0" result="BackgroundImageFix"/>
<feColorMatrix in="SourceAlpha" type="matrix" values="0 0 0 0 0 0 0 0 0 0 0 0 0 0 0 0 0 0 127 0" result="hardAlpha"/>
<feOffset dy="2"/>
<feGaussianBlur stdDeviation="5"/>
<feColorMatrix type="matrix" values="0 0 0 0 0 0 0 0 0 0 0 0 0 0 0 0 0 0 0.2 0"/>
<feBlend mode="normal" in2="BackgroundImageFix" result="effect1_dropShadow_0:3"/>
<feBlend mode="normal" in="SourceGraphic" in2="effect1_dropShadow_0:3" result="shape"/>
</filter>
</defs>
</svg>
