<svg width="344" height="215" viewBox="0 0 344 215" fill="none" xmlns="http://www.w3.org/2000/svg">
<g filter="url(#filter0_d)">
<path fill-rule="evenodd" clip-rule="evenodd" d="M314 8H64V203H314C325.046 203 334 194.046 334 183V143.971C323.301 135.624 316.269 121.508 316.269 105.5C316.269 89.4917 323.301 75.3757 334 67.0286V28C334 16.9543 325.046 8 314 8Z" fill="#FEFEFE"/>
</g>
<g filter="url(#filter1_d)">
<path d="M10 28C10 16.9543 18.9543 8 30 8H60V203H30C18.9543 203 10 194.046 10 183V28Z" fill="#0BB286"/>
</g>
<path d="M41.216 154.422C41.216 155.73 40.934 156.912 40.37 157.968C39.806 159.012 39.032 159.834 38.048 160.434C37.052 161.022 35.936 161.316 34.7 161.316C33.464 161.316 32.354 161.022 31.37 160.434C30.374 159.834 29.594 159.012 29.03 157.968C28.466 156.912 28.184 155.73 28.184 154.422C28.184 153.114 28.466 151.938 29.03 150.894C29.594 149.85 30.374 149.028 31.37 148.428C32.354 147.828 33.464 147.528 34.7 147.528C35.936 147.528 37.052 147.828 38.048 148.428C39.032 149.028 39.806 149.85 40.37 150.894C40.934 151.938 41.216 153.114 41.216 154.422ZM38.732 154.422C38.732 153.678 38.564 153.006 38.228 152.406C37.88 151.806 37.4 151.338 36.788 151.002C36.176 150.654 35.48 150.48 34.7 150.48C33.92 150.48 33.224 150.654 32.612 151.002C32 151.338 31.526 151.806 31.19 152.406C30.842 153.006 30.668 153.678 30.668 154.422C30.668 155.166 30.842 155.838 31.19 156.438C31.526 157.038 32 157.512 32.612 157.86C33.224 158.196 33.92 158.364 34.7 158.364C35.48 158.364 36.176 158.196 36.788 157.86C37.4 157.512 37.88 157.038 38.228 156.438C38.564 155.838 38.732 155.166 38.732 154.422ZM28.4 133.798L41 133.798L41 136.696L30.776 136.696L30.776 142.384L41 142.384L41 145.282L28.4 145.282L28.4 133.798ZM28.4 119.53L41 119.53L41 122.41L30.776 122.41L30.776 126.73L33.404 126.82C35.192 126.88 36.644 127.024 37.76 127.252C38.864 127.48 39.716 127.864 40.316 128.404C40.904 128.932 41.198 129.676 41.198 130.636C41.198 131.032 41.132 131.512 41 132.076L38.534 131.896C38.582 131.74 38.606 131.566 38.606 131.374C38.606 130.678 38.198 130.192 37.382 129.916C36.554 129.64 35.264 129.466 33.512 129.394L28.4 129.214L28.4 119.53ZM38.3 107.851L38.3 113.701L41 114.817L41 117.805L28.4 112.189L28.4 109.309L41 103.675L41 106.735L38.3 107.851ZM36.086 108.769L31.262 110.767L36.086 112.765L36.086 108.769ZM28.4 92.6035L41 92.6035L41 95.4835L36.464 95.4835C36.86 96.5755 37.058 97.5895 37.058 98.5255C37.058 100.218 36.656 101.514 35.852 102.414C35.036 103.314 33.866 103.764 32.342 103.764L28.4 103.764L28.4 100.884L32.018 100.884C32.882 100.884 33.536 100.656 33.98 100.2C34.412 99.7315 34.628 99.0595 34.628 98.1835C34.628 97.2235 34.442 96.3235 34.07 95.4835L28.4 95.4835L28.4 92.6035ZM38.66 79.7151L41 79.7151L41 89.4711L28.4 89.4711L28.4 79.9491L30.74 79.9491L30.74 86.5731L33.476 86.5731L33.476 80.7231L35.744 80.7231L35.744 86.5731L38.66 86.5731L38.66 79.7151ZM28.4 65.8038L41 65.8038L41 68.7198L35.834 68.7198L35.834 74.4438L41 74.4438L41 77.3598L28.4 77.3598L28.4 74.4438L33.368 74.4438L33.368 68.7198L28.4 68.7198L28.4 65.8038ZM41.216 56.6349C41.216 57.9429 40.934 59.1249 40.37 60.1809C39.806 61.2249 39.032 62.0469 38.048 62.6469C37.052 63.2349 35.936 63.5289 34.7 63.5289C33.464 63.5289 32.354 63.2349 31.37 62.6469C30.374 62.0469 29.594 61.2249 29.03 60.1809C28.466 59.1249 28.184 57.9429 28.184 56.6349C28.184 55.3269 28.466 54.1509 29.03 53.1069C29.594 52.0629 30.374 51.2409 31.37 50.6409C32.354 50.0409 33.464 49.7409 34.7 49.7409C35.936 49.7409 37.052 50.0409 38.048 50.6409C39.032 51.2409 39.806 52.0629 40.37 53.1069C40.934 54.1509 41.216 55.3269 41.216 56.6349ZM38.732 56.6349C38.732 55.8909 38.564 55.2189 38.228 54.6189C37.88 54.0189 37.4 53.5509 36.788 53.2149C36.176 52.8669 35.48 52.6929 34.7 52.6929C33.92 52.6929 33.224 52.8669 32.612 53.2149C32 53.5509 31.526 54.0189 31.19 54.6189C30.842 55.2189 30.668 55.8909 30.668 56.6349C30.668 57.3789 30.842 58.0509 31.19 58.6509C31.526 59.2509 32 59.7249 32.612 60.0729C33.224 60.4089 33.92 60.5769 34.7 60.5769C35.48 60.5769 36.176 60.4089 36.788 60.0729C37.4 59.7249 37.88 59.2509 38.228 58.6509C38.564 58.0509 38.732 57.3789 38.732 56.6349Z" fill="white"/>
<defs>
<filter id="filter0_d" x="54" y="0" width="290" height="215" filterUnits="userSpaceOnUse" color-interpolation-filters="sRGB">
<feFlood flood-opacity="0" result="BackgroundImageFix"/>
<feColorMatrix in="SourceAlpha" type="matrix" values="0 0 0 0 0 0 0 0 0 0 0 0 0 0 0 0 0 0 127 0"/>
<feOffset dy="2"/>
<feGaussianBlur stdDeviation="5"/>
<feColorMatrix type="matrix" values="0 0 0 0 0 0 0 0 0 0 0 0 0 0 0 0 0 0 0.2 0"/>
<feBlend mode="normal" in2="BackgroundImageFix" result="effect1_dropShadow"/>
<feBlend mode="normal" in="SourceGraphic" in2="effect1_dropShadow" result="shape"/>
</filter>
<filter id="filter1_d" x="0" y="0" width="70" height="215" filterUnits="userSpaceOnUse" color-interpolation-filters="sRGB">
<feFlood flood-opacity="0" result="BackgroundImageFix"/>
<feColorMatrix in="SourceAlpha" type="matrix" values="0 0 0 0 0 0 0 0 0 0 0 0 0 0 0 0 0 0 127 0"/>
<feOffset dy="2"/>
<feGaussianBlur stdDeviation="5"/>
<feColorMatrix type="matrix" values="0 0 0 0 0 0 0 0 0 0 0 0 0 0 0 0 0 0 0.2 0"/>
<feBlend mode="normal" in2="BackgroundImageFix" result="effect1_dropShadow"/>
<feBlend mode="normal" in="SourceGraphic" in2="effect1_dropShadow" result="shape"/>
</filter>
</defs>
</svg>
