<svg width="10" height="10" viewBox="0 0 10 10" fill="none" xmlns="http://www.w3.org/2000/svg">
<circle cx="5" cy="5" r="4.7" stroke="#C4C4C4" stroke-width="0.6"/>
<path d="M3.1266 3.00001C3.11012 2.99983 3.09376 3.00248 3.07846 3.00781C3.06316 3.01315 3.04923 3.02107 3.03746 3.0311C3.02569 3.04114 3.01632 3.0531 3.0099 3.0663C3.00347 3.0795 3.0001 3.09368 3 3.10801V3.58557C3 3.64609 3.057 3.69566 3.1266 3.69566H6.87579C6.89227 3.69557 6.90857 3.69264 6.92375 3.68705C6.93893 3.68146 6.95269 3.67332 6.96423 3.66309C6.97577 3.65285 6.98488 3.64074 6.99101 3.62743C6.99715 3.61413 7.0002 3.5999 6.99999 3.58557V3.10801C7.00012 3.09379 6.997 3.0797 6.99081 3.06654C6.98461 3.05339 6.97547 3.04143 6.96391 3.03138C6.95235 3.02133 6.9386 3.01338 6.92348 3.00799C6.90835 3.00261 6.89214 2.99989 6.87579 3.00001H3.1266ZM3.1266 4.2174C3.09342 4.21735 3.06155 4.22864 3.03786 4.24885C3.01418 4.26905 3.00058 4.29655 3 4.3254V4.80296C3 4.86348 3.057 4.91305 3.1266 4.91305H4.6V6.892C4.6 6.95234 4.6548 7 4.7242 7H5.27579C5.29214 7.00011 5.30835 6.9974 5.32348 6.99201C5.33861 6.98662 5.35235 6.97867 5.36391 6.96862C5.37547 6.95857 5.38462 6.94662 5.39081 6.93346C5.39701 6.92031 5.40013 6.90621 5.39999 6.892V4.91305H6.87579C6.89227 4.91296 6.90857 4.91003 6.92375 4.90444C6.93893 4.89885 6.95269 4.89071 6.96423 4.88047C6.97577 4.87024 6.98488 4.85813 6.99101 4.84482C6.99715 4.83152 7.0002 4.81729 6.99999 4.80296V4.3254C6.99994 4.29677 6.98683 4.26932 6.96355 4.24908C6.94027 4.22884 6.90871 4.21744 6.87579 4.2174H3.1266Z" fill="#C4C4C4"/>
</svg>
